<?xml version="1.0" encoding="UTF-8"?>
<svg id="_图层_1" data-name="图层 1" xmlns="http://www.w3.org/2000/svg" viewBox="0 0 96 96">
  <defs>
    <style>
      .cls-1 {
        fill: #00f4c4;
      }

      .cls-1, .cls-2, .cls-3, .cls-4 {
        fill-rule: evenodd;
      }

      .cls-1, .cls-2, .cls-3, .cls-4, .cls-5 {
        stroke-width: 0px;
      }

      .cls-2 {
        fill: #003eb3;
      }

      .cls-3 {
        fill: #00d3c6;
      }

      .cls-4 {
        fill: #0059ff;
      }

      .cls-5 {
        fill: #00103c;
      }
    </style>
  </defs>
  <g id="ServBay">
    <g id="icon">
      <rect id="bg" class="cls-5" width="96" height="96" rx="24" ry="24"/>
      <g id="Logo_1" data-name="Logo/1">
        <g id="left-arrow">
          <path id="block" class="cls-3" d="m10.77,47.39l9.17,15.76c.41.71,1.27,1.02,2.04.73l16.98-6.28c.87-.32,1.32-1.29,1-2.16-.03-.09-.07-.17-.12-.25l-8.67-15.25h0l-20.4,7.46Z"/>
          <path id="diamond" class="cls-1" d="m20.67,22.02l33.91-11.63c.88-.3,1.84.17,2.14,1.05.12.36.12.75,0,1.11l-7.43,21.1c-.17.49-.56.87-1.05,1.04l-37.47,12.72h0l8.87-24.36c.17-.48.55-.85,1.04-1.02Z"/>
        </g>
        <g id="right-arrow">
          <path id="block-2" data-name="block" class="cls-2" d="m84.1,49.93l-9.17-15.76c-.41-.71-1.27-1.02-2.04-.73l-16.98,6.28c-.87.32-1.32,1.29-1,2.16.03.09.07.17.12.25l8.67,15.25h0l20.4-7.46Z"/>
          <path id="diamond-2" data-name="diamond" class="cls-4" d="m74.2,75.3l-33.91,11.63c-.88.3-1.84-.17-2.14-1.05-.12-.36-.12-.75,0-1.11l7.43-21.1c.17-.49.56-.87,1.05-1.04l37.47-12.72h0l-8.87,24.36c-.17.48-.55.85-1.04,1.02Z"/>
        </g>
      </g>
    </g>
  </g>
</svg>